<svg width="476" height="643" viewBox="0 0 476 643" fill="none" xmlns="http://www.w3.org/2000/svg">
<path fill-rule="evenodd" clip-rule="evenodd" d="M236.5 239.046C236.493 238.713 236.554 238.387 236.673 238.085C236.803 237.755 236.996 237.466 237.234 237.229C237.469 236.995 237.753 236.805 238.078 236.676C238.389 236.552 238.726 236.491 239.069 236.5C239.324 236.507 239.575 236.554 239.813 236.636L423.765 297.953L481.205 2.34942C481.414 1.27219 482.301 0.457425 483.393 0.340505C484.484 0.223627 485.523 0.831951 485.956 1.84042L642.227 366C642.63 366.94 642.42 368.031 641.697 368.754L505.226 505.226L368.754 641.697C368.031 642.42 366.94 642.63 366 642.227L1.84028 485.956C0.831835 485.524 0.223489 484.484 0.340367 483.393C0.457266 482.302 1.27205 481.414 2.3493 481.205L297.953 423.765L236.636 239.813C236.551 239.568 236.504 239.31 236.5 239.046ZM242.953 242.953L302.901 422.797L403.042 403.042L422.797 302.901L242.953 242.953ZM407.348 407.349L370.698 632.682L501.69 501.69L632.682 370.698L407.348 407.349ZM635.504 363.013L428.559 299.495L484.564 11.275L635.504 363.013ZM427.592 304.429L628.967 366.237L408.319 402.125L427.592 304.429ZM363.013 635.504L299.495 428.559L11.2748 484.564L363.013 635.504ZM304.429 427.592L366.236 628.967L402.125 408.319L304.429 427.592Z" fill="#F9F9F9"/>
</svg>
