<svg width="420" height="1006" viewBox="0 0 420 1006" fill="none" xmlns="http://www.w3.org/2000/svg">
<path fill-rule="evenodd" clip-rule="evenodd" d="M418.746 501.21C418.98 501.438 419.163 501.707 419.291 501.999C419.434 502.325 419.501 502.667 419.501 503.004C419.5 503.334 419.434 503.669 419.296 503.989C419.162 504.301 418.964 504.587 418.709 504.825C418.526 504.997 418.319 505.138 418.097 505.247L162.664 632.963L411.073 1001.6C411.687 1002.51 411.635 1003.72 410.945 1004.57C410.255 1005.42 409.09 1005.73 408.071 1005.32L-133.929 788.321C-134.878 787.941 -135.5 787.022 -135.5 786L-135.5 503L-135.5 220C-135.5 218.978 -134.878 218.059 -133.929 217.679L408.071 0.679253C409.09 0.271325 410.256 0.575616 410.945 1.42947C411.635 2.28332 411.687 3.48705 411.073 4.39721L162.664 373.037L418.097 500.753C418.334 500.869 418.554 501.022 418.746 501.21ZM411.41 503L159.835 377.213L74.0263 503L159.835 628.788L411.41 503ZM67.9183 503L-130.5 227.744L-130.5 503L-130.5 778.257L67.9183 503ZM70.9436 507.354L155.357 631.095L-124.741 778.818L70.9436 507.354ZM402.386 997.659L-127.051 785.689L158.181 635.258L402.386 997.659ZM70.9436 498.647L155.357 374.905L-124.741 227.182L70.9436 498.647ZM402.387 8.34094L-127.051 220.311L158.181 370.742L402.387 8.34094Z" fill="#F9F9F9"/>
</svg>
