<svg width="411" height="1006" viewBox="0 0 411 1006" fill="none" xmlns="http://www.w3.org/2000/svg">
<path fill-rule="evenodd" clip-rule="evenodd" d="M409.746 501.21C409.98 501.438 410.163 501.707 410.291 501.999C410.434 502.325 410.501 502.667 410.501 503.004C410.5 503.334 410.434 503.669 410.296 503.989C410.162 504.301 409.964 504.587 409.709 504.825C409.526 504.997 409.319 505.138 409.097 505.247L153.664 632.963L402.073 1001.6C402.687 1002.51 402.635 1003.72 401.945 1004.57C401.255 1005.42 400.09 1005.73 399.071 1005.32L-142.929 788.321C-143.878 787.941 -144.5 787.022 -144.5 786L-144.5 503L-144.5 220C-144.5 218.978 -143.878 218.059 -142.929 217.679L399.071 0.679229C400.09 0.271301 401.256 0.575592 401.945 1.42944C402.635 2.28329 402.687 3.48703 402.073 4.39719L153.664 373.037L409.097 500.753C409.334 500.869 409.554 501.022 409.746 501.21ZM402.41 503L150.835 377.213L65.0263 503L150.835 628.788L402.41 503ZM58.9183 503L-139.5 227.744L-139.5 503L-139.5 778.257L58.9183 503ZM61.9436 507.354L146.357 631.095L-133.741 778.818L61.9436 507.354ZM393.386 997.659L-136.051 785.689L149.181 635.258L393.386 997.659ZM61.9436 498.647L146.357 374.905L-133.741 227.182L61.9436 498.647ZM393.387 8.34091L-136.051 220.311L149.181 370.742L393.387 8.34091Z" fill="#F9F9F9"/>
</svg>
