<svg width="562" height="544" viewBox="0 0 562 544" fill="none" xmlns="http://www.w3.org/2000/svg">
<path fill-rule="evenodd" clip-rule="evenodd" d="M300.702 147.675C300.907 147.783 301.089 147.94 301.23 148.143C301.234 148.149 301.238 148.154 301.241 148.159C301.247 148.168 301.253 148.177 301.259 148.186C301.267 148.198 301.275 148.211 301.283 148.224C301.291 148.238 301.299 148.251 301.307 148.265C301.46 148.537 301.52 148.841 301.493 149.136L286.196 330.092L559.759 303.337C560.416 303.273 561.038 303.646 561.291 304.256C561.543 304.866 561.368 305.57 560.858 305.989L272.908 542.732C272.425 543.129 271.747 543.185 271.206 542.872L122.249 456.872C122.244 456.869 122.24 456.866 122.235 456.864C121.528 456.446 121.289 455.536 121.7 454.823C122.114 454.106 123.032 453.86 123.749 454.274M298.236 152.055L283.159 330.402L189.428 340.515L151.321 254.285L298.236 152.055ZM299.142 147.769C299.19 147.736 299.239 147.706 299.289 147.679C299.589 147.517 299.924 147.467 300.243 147.52C300.407 147.547 300.562 147.6 300.702 147.675M187.556 343.757L268.856 538.051L123.764 454.282C123.759 454.28 123.754 454.277 123.749 454.274L-21.3576 370.496L187.556 343.757ZM122.235 456.864L-26.7072 370.872C-27.2485 370.559 -27.5393 369.944 -27.4369 369.327L33.6138 1.58447C33.7219 0.93311 34.2432 0.429055 34.8979 0.342936C35.5525 0.256816 36.1865 0.608892 36.4594 1.21014L150.071 251.5L299.142 147.769M186.315 340.891L148.795 255.99L-19.739 367.265L186.315 340.891ZM35.7657 6.94009L-23.9143 366.427L147.554 253.214L35.7657 6.94009ZM190.659 343.399L282.946 333.442L270.845 535.034L190.659 343.399ZM555.143 306.803L273.659 538.231L285.97 333.129L555.143 306.803Z" fill="#F9F9F9"/>
</svg>
