<svg width="80" height="80" viewBox="0 0 80 80" fill="none" xmlns="http://www.w3.org/2000/svg">
<path d="M24.3278 61C15.919 61 8.99963 54.1386 8.99963 45.8676C8.99963 39.3276 14.0226 33.2789 20.574 31.3529C23.9076 23.7359 31.2502 19 39.656 19C50.514 19 59.2822 26.8946 60.615 37.2206C63.2705 37.8604 65.8076 39.4299 67.4971 41.5441C69.1866 43.6584 69.995 46.2667 69.9996 48.9559C69.9996 55.5739 64.5279 61 57.7996 61" stroke="url(#paint0_linear_1_676)" stroke-width="4" stroke-linecap="round" stroke-linejoin="round"/>
<path d="M48.4996 31C48.4996 30.1716 47.8281 29.5 46.9996 29.5C46.1712 29.5 45.4996 30.1716 45.4996 31H48.4996ZM46.9996 47.6138L46.5892 49.0565L48.4996 49.6V47.6138H46.9996ZM38.9996 45.3379L39.4101 43.8952L37.4996 43.3517V45.3379H38.9996ZM37.939 65.0607C38.5248 65.6464 39.4745 65.6464 40.0603 65.0607L49.6062 55.5147C50.192 54.9289 50.192 53.9792 49.6062 53.3934C49.0204 52.8076 48.0707 52.8076 47.4849 53.3934L38.9996 61.8787L30.5144 53.3934C29.9286 52.8076 28.9788 52.8076 28.393 53.3934C27.8072 53.9792 27.8072 54.9289 28.393 55.5147L37.939 65.0607ZM45.4996 31V47.6138H48.4996V31H45.4996ZM47.4101 46.171L39.4101 43.8952L38.5892 46.7807L46.5892 49.0565L47.4101 46.171ZM37.4996 45.3379V64H40.4996V45.3379H37.4996Z" fill="url(#paint1_linear_1_676)"/>
<defs>
<linearGradient id="paint0_linear_1_676" x1="39.3699" y1="10.9632" x2="39.3699" y2="74.0509" gradientUnits="userSpaceOnUse">
<stop stop-color="#00B9FF"/>
<stop offset="1" stop-color="#0068B5"/>
</linearGradient>
<linearGradient id="paint1_linear_1_676" x1="38.9996" y1="49.81" x2="47.003" y2="49.7983" gradientUnits="userSpaceOnUse">
<stop stop-color="#FF6753"/>
<stop offset="1" stop-color="#FF8F50"/>
</linearGradient>
</defs>
</svg>
