<svg width="80" height="80" viewBox="0 0 80 80" fill="none" xmlns="http://www.w3.org/2000/svg">
<path d="M24.3278 58C15.919 58 8.99963 51.1386 8.99963 42.8676C8.99963 36.3276 14.0226 30.2789 20.574 28.3529C23.9076 20.7359 31.2502 16 39.656 16C50.514 16 59.2822 23.8946 60.615 34.2206C63.2705 34.8604 65.8076 36.4299 67.4971 38.5441C69.1866 40.6584 69.995 43.2667 69.9996 45.9559C69.9996 52.5739 64.5279 58 57.7996 58" stroke="url(#paint0_linear_1_697)" stroke-width="4" stroke-linecap="round" stroke-linejoin="round"/>
<path fill-rule="evenodd" clip-rule="evenodd" d="M40.0234 66.742C40.3205 66.903 40.6788 66.903 40.9759 66.742L47.4476 63.2366C49.4284 62.1661 51.0848 60.5678 52.2391 58.6134C53.3934 56.659 54.002 54.4221 53.9996 52.1429V37.2857C53.999 36.6797 53.7618 36.0987 53.34 35.6701C52.9181 35.2416 52.3462 35.0006 51.7496 35H29.2496C28.6531 35.0006 28.0811 35.2416 27.6593 35.6701C27.2375 36.0987 27.0002 36.6797 26.9996 37.2857V52.1429C26.9973 54.4221 27.6059 56.659 28.7602 58.6134C29.9145 60.5678 31.5709 62.1661 33.5516 63.2366L40.0234 66.742ZM29.2496 38.2857C29.2496 37.7334 29.6974 37.2857 30.2496 37.2857H50.7496C51.3019 37.2857 51.7496 37.7334 51.7496 38.2857V52.1429C51.7517 54.008 51.2537 55.8384 50.3091 57.4377C49.3644 59.037 48.0089 60.3448 46.3879 61.2206L40.9759 64.1512C40.6788 64.3121 40.3205 64.3121 40.0234 64.1512L34.6114 61.2194C32.9906 60.3437 31.6351 59.0362 30.6905 57.4371C29.7459 55.838 29.2478 54.0078 29.2496 52.1429V38.2857ZM37.5995 50.9121C37.9952 51.3391 38.6707 51.3391 39.0664 50.9121L44.7387 44.7914C45.1344 44.3644 45.8099 44.3644 46.2056 44.7914L46.3697 44.9685C46.7251 45.352 46.7251 45.9445 46.3697 46.328L39.0664 54.2086C38.6707 54.6356 37.9952 54.6356 37.5995 54.2086L34.6296 51.0039C34.2742 50.6204 34.2742 50.0279 34.6296 49.6444L34.7937 49.4673C35.1894 49.0403 35.8649 49.0403 36.2606 49.4673L37.5995 50.9121Z" fill="url(#paint1_linear_1_697)"/>
<defs>
<linearGradient id="paint0_linear_1_697" x1="39.3699" y1="7.96317" x2="39.3699" y2="71.0509" gradientUnits="userSpaceOnUse">
<stop stop-color="#00B9FF"/>
<stop offset="1" stop-color="#0068B5"/>
</linearGradient>
<linearGradient id="paint1_linear_1_697" x1="26.9996" y1="53.1618" x2="54.0104" y2="53.0232" gradientUnits="userSpaceOnUse">
<stop stop-color="#FF6753"/>
<stop offset="1" stop-color="#FF8F50"/>
</linearGradient>
</defs>
</svg>
