<svg width="80" height="80" viewBox="0 0 80 80" fill="none" xmlns="http://www.w3.org/2000/svg">
<rect x="9.99963" y="15" width="61" height="42" rx="2" stroke="url(#paint0_linear_1_685)" stroke-width="4" stroke-linecap="round" stroke-linejoin="round"/>
<rect x="28.9996" y="62" width="23" height="5" rx="2.5" fill="url(#paint1_linear_1_685)"/>
<path fill-rule="evenodd" clip-rule="evenodd" d="M49.9996 54C49.4473 54 48.9996 53.5523 48.9996 53L48.9996 32C48.9996 31.4477 49.4473 31 49.9996 31H50.9996C51.5519 31 51.9996 31.4477 51.9996 32V53C51.9996 53.5523 51.5519 54 50.9996 54H49.9996ZM39.9996 54C39.4473 54 38.9996 53.5523 38.9996 53L38.9996 36C38.9996 35.4477 39.4473 35 39.9996 35H40.9996C41.5519 35 41.9996 35.4477 41.9996 36V53C41.9996 53.5523 41.5519 54 40.9996 54H39.9996ZM29.9996 54C29.4473 54 28.9996 53.5523 28.9996 53L28.9996 40C28.9996 39.4477 29.4473 39 29.9996 39H30.9996C31.5519 39 31.9996 39.4477 31.9996 40L31.9996 53C31.9996 53.5523 31.5519 54 30.9996 54H29.9996ZM24.9996 54C24.4473 54 23.9996 53.5523 23.9996 53V43C23.9996 42.4477 24.4473 42 24.9996 42H25.9996C26.5519 42 26.9996 42.4477 26.9996 43L26.9996 53C26.9996 53.5523 26.5519 54 25.9996 54H24.9996ZM33.9996 53C33.9996 53.5523 34.4473 54 34.9996 54H35.9996C36.5519 54 36.9996 53.5523 36.9996 53L36.9996 40C36.9996 39.4477 36.5519 39 35.9996 39H34.9996C34.4473 39 33.9996 39.4477 33.9996 40L33.9996 53ZM43.9996 53C43.9996 53.5523 44.4473 54 44.9996 54H45.9996C46.5519 54 46.9996 53.5523 46.9996 53V36C46.9996 35.4477 46.5519 35 45.9996 35H44.9996C44.4473 35 43.9996 35.4477 43.9996 36V53ZM53.9996 53C53.9996 53.5523 54.4473 54 54.9996 54H55.9996C56.5519 54 56.9996 53.5523 56.9996 53V32C56.9996 31.4477 56.5519 31 55.9996 31H54.9996C54.4473 31 53.9996 31.4477 53.9996 32L53.9996 53Z" fill="url(#paint2_linear_1_685)"/>
<path d="M25.7447 37.5699C25.5072 37.7106 25.4287 38.0173 25.5695 38.2549C25.7103 38.4925 26.017 38.5709 26.2545 38.4301L25.7447 37.5699ZM39.4996 30V29.5H39.3626L39.2447 29.5699L39.4996 30ZM45.4996 30V30.5H45.6443L45.7666 30.4227L45.4996 30ZM55.4874 24.1101C55.5482 23.8408 55.3791 23.5731 55.1098 23.5123L50.7203 22.5211C50.4509 22.4603 50.1833 22.6293 50.1224 22.8987C50.0616 23.1681 50.2307 23.4357 50.5 23.4965L54.4018 24.3776L53.5207 28.2794C53.4599 28.5487 53.629 28.8164 53.8983 28.8772C54.1677 28.938 54.4354 28.769 54.4962 28.4996L55.4874 24.1101ZM26.2545 38.4301L39.7545 30.4301L39.2447 29.5699L25.7447 37.5699L26.2545 38.4301ZM39.4996 30.5H45.4996V29.5H39.4996V30.5ZM45.7666 30.4227L55.2666 24.4227L54.7326 23.5773L45.2326 29.5773L45.7666 30.4227Z" fill="url(#paint3_linear_1_685)"/>
<defs>
<linearGradient id="paint0_linear_1_685" x1="40.3614" y1="4.19776" x2="40.3614" y2="73.2939" gradientUnits="userSpaceOnUse">
<stop stop-color="#00B9FF"/>
<stop offset="1" stop-color="#0068B5"/>
</linearGradient>
<linearGradient id="paint1_linear_1_685" x1="40.4507" y1="61.0432" x2="40.4507" y2="68.5537" gradientUnits="userSpaceOnUse">
<stop stop-color="#00B9FF"/>
<stop offset="1" stop-color="#0068B5"/>
</linearGradient>
<linearGradient id="paint2_linear_1_685" x1="23.9996" y1="44.11" x2="57.0111" y2="43.8232" gradientUnits="userSpaceOnUse">
<stop stop-color="#FF6753"/>
<stop offset="1" stop-color="#FF8F50"/>
</linearGradient>
<linearGradient id="paint3_linear_1_685" x1="25.9996" y1="31.98" x2="55.0074" y2="31.6162" gradientUnits="userSpaceOnUse">
<stop stop-color="#FF6753"/>
<stop offset="1" stop-color="#FF8F50"/>
</linearGradient>
</defs>
</svg>
