<svg width="80" height="80" viewBox="0 0 80 80" fill="none" xmlns="http://www.w3.org/2000/svg">
<path fill-rule="evenodd" clip-rule="evenodd" d="M17.9996 37.3333C17.9996 26.6558 26.6555 18 37.333 18C48.0105 18 56.6663 26.6558 56.6663 37.3333C56.6663 42.5597 54.5924 47.3018 51.2228 50.7814C51.1392 50.8423 51.0593 50.9104 50.9839 50.9858C50.9085 51.0612 50.8404 51.141 50.7796 51.2246C47.3001 54.5934 42.5586 56.6667 37.333 56.6667C26.6555 56.6667 17.9996 48.0108 17.9996 37.3333ZM52.3567 55.1871C48.2975 58.6064 43.0558 60.6667 37.333 60.6667C24.4463 60.6667 13.9996 50.22 13.9996 37.3333C13.9996 24.4467 24.4463 14 37.333 14C50.2196 14 60.6663 24.4467 60.6663 37.3333C60.6663 43.057 58.6054 48.2993 55.1853 52.3588L65.4123 62.5858C66.1933 63.3669 66.1933 64.6332 65.4123 65.4142C64.6312 66.1953 63.3649 66.1953 62.5839 65.4142L52.3567 55.1871Z" fill="url(#paint0_linear_1_702)"/>
<path fill-rule="evenodd" clip-rule="evenodd" d="M32.9996 30.5C32.9996 29.6716 33.6712 29 34.4996 29H48.4996C49.3281 29 49.9996 29.6716 49.9996 30.5C49.9996 31.3284 49.3281 32 48.4996 32H34.4996C33.6712 32 32.9996 31.3284 32.9996 30.5ZM25.9996 42.5C25.9996 41.6716 26.6712 41 27.4996 41H41.4996C42.3281 41 42.9996 41.6716 42.9996 42.5C42.9996 43.3284 42.3281 44 41.4996 44H27.4996C26.6712 44 25.9996 43.3284 25.9996 42.5ZM27.4996 35C26.6712 35 25.9996 35.6716 25.9996 36.5C25.9996 37.3284 26.6712 38 27.4996 38H48.4996C49.3281 38 49.9996 37.3284 49.9996 36.5C49.9996 35.6716 49.3281 35 48.4996 35H27.4996Z" fill="url(#paint1_linear_1_702)"/>
<defs>
<linearGradient id="paint0_linear_1_702" x1="39.8882" y1="4.04963" x2="39.8882" y2="82.1583" gradientUnits="userSpaceOnUse">
<stop stop-color="#00B9FF"/>
<stop offset="1" stop-color="#0068B5"/>
</linearGradient>
<linearGradient id="paint1_linear_1_702" x1="25.9996" y1="37.55" x2="50.0076" y2="37.3174" gradientUnits="userSpaceOnUse">
<stop stop-color="#FF6753"/>
<stop offset="1" stop-color="#FF8F50"/>
</linearGradient>
</defs>
</svg>
