<svg width="80" height="80" viewBox="0 0 80 80" fill="none" xmlns="http://www.w3.org/2000/svg">
<path d="M69.6996 51.1773V24.6916C67.0256 22.4522 57.4422 17.9403 40.5 17.9403C23.5578 17.9403 13.9744 22.4522 11.3004 24.6916V51.1773C13.9744 53.4166 23.5578 57.9286 40.5 57.9286C57.4422 57.9286 67.0256 53.4166 69.6996 51.1773Z" fill="white" stroke="url(#paint0_linear_1_717)" stroke-width="3" stroke-linecap="round" stroke-linejoin="round"/>
<path d="M66.6777 27.5789L57.8037 30.2703V37.8961V45.2976L66.6777 47.989M65.1627 30.2703V37.8961V45.2976" stroke="url(#paint1_linear_1_717)" stroke-linecap="round"/>
<path d="M14.3212 27.5789L23.1952 30.2703V37.8961V45.2976L14.3212 47.989M15.8363 30.2703V37.8961V45.2976" stroke="url(#paint2_linear_1_717)" stroke-linecap="round"/>
<path d="M69.6996 51.1773V24.6916C67.0256 22.4522 57.4422 17.9403 40.5 17.9403C23.5578 17.9403 13.9744 22.4522 11.3004 24.6916V51.1773C13.9744 53.4166 23.5578 57.9286 40.5 57.9286C57.4422 57.9286 67.0256 53.4166 69.6996 51.1773Z" stroke="url(#paint3_linear_1_717)" stroke-width="3" stroke-linecap="round" stroke-linejoin="round"/>
<path fill-rule="evenodd" clip-rule="evenodd" d="M49.2076 30.0076C49.2076 36.5445 44.8025 40.9726 40.3585 40.9726C35.9145 40.9726 31.5094 36.5445 31.5094 30.0076C31.5094 23.4708 35.9145 19.0426 40.3585 19.0426C44.8025 19.0426 49.2076 23.4708 49.2076 30.0076ZM44.6886 43.0108C43.3473 43.6317 41.8867 43.9726 40.3585 43.9726C38.7469 43.9726 37.2104 43.5934 35.8099 42.9066C35.5078 44.4174 34.8677 45.6869 34.0052 46.7374C32.8051 48.1988 31.2339 49.1665 29.7239 49.8198C28.2104 50.4746 26.6887 50.8437 25.5129 51.0693C24.9287 51.1815 24.4192 51.2601 24.0411 51.3184L24.0411 51.3184L24.0297 51.3202C23.8347 51.3503 23.6895 51.3728 23.5781 51.3923C23.5142 51.4035 23.4813 51.4105 23.4703 51.4128C23.2338 51.4879 22.9911 51.5292 22.8202 51.5567C22.7237 51.5722 22.6446 51.5841 22.5688 51.5955C22.4614 51.6116 22.3604 51.6268 22.2254 51.6499C21.8317 51.7172 21.4039 51.8138 20.9376 52.0067C20.0362 52.3794 18.8113 53.1863 17.5151 55.2034C16.1304 57.358 15.4227 58.98 15.0514 60.3191C14.6827 61.6492 14.6246 62.773 14.6246 64C14.6246 64.8284 13.9531 65.5 13.1246 65.5C12.2962 65.5 11.6246 64.8284 11.6246 64C11.6246 62.6592 11.6869 61.226 12.1605 59.5177C12.6315 57.8184 13.4881 55.9205 14.9913 53.5815C16.5829 51.1049 18.266 49.8651 19.7912 49.2344C20.5381 48.9255 21.2034 48.7811 21.7196 48.6928C21.8699 48.6671 22.044 48.6407 22.1795 48.6201C22.2465 48.6099 22.3041 48.6011 22.3447 48.5946C22.4902 48.5713 22.5451 48.558 22.5558 48.5554C22.5581 48.5548 22.5584 48.5547 22.5572 48.5551C22.7371 48.4952 22.9382 48.4587 23.0601 48.4374C23.2065 48.4117 23.3832 48.3845 23.5652 48.3564L23.5722 48.3553L23.5725 48.3552C23.9522 48.2967 24.4171 48.2249 24.9474 48.1231C26.0127 47.9186 27.2986 47.6004 28.5326 47.0665C29.7701 46.531 30.8862 45.8084 31.6866 44.8336C32.4551 43.8977 32.9891 42.6635 33.0026 40.9565C30.2652 38.3985 28.5094 34.4447 28.5094 30.0076C28.5094 22.295 33.8144 16.0426 40.3585 16.0426C46.9026 16.0426 52.2076 22.295 52.2076 30.0076C52.2076 34.5707 50.3507 38.6225 47.4789 41.1709C47.5336 42.7675 48.0545 43.9373 48.7904 44.8336C49.5909 45.8084 50.707 46.531 51.9445 47.0665C53.1785 47.6004 54.4644 47.9186 55.5297 48.1231C56.06 48.2249 56.5249 48.2967 56.9046 48.3552L56.9049 48.3553L56.9118 48.3564C57.0938 48.3844 57.2705 48.4117 57.4169 48.4374C57.5388 48.4587 57.74 48.4952 57.9199 48.5551C57.9187 48.5547 57.919 48.5548 57.9213 48.5554C57.932 48.558 57.9869 48.5713 58.1324 48.5946C58.1728 48.6011 58.2301 48.6098 58.2967 48.6199L58.2976 48.6201L58.2977 48.6201C58.4332 48.6407 58.6072 48.6671 58.7574 48.6928C59.2737 48.7811 59.9389 48.9255 60.6859 49.2344C62.2111 49.8651 63.8942 51.1049 65.4858 53.5815C66.9889 55.9205 67.8455 57.8184 68.3166 59.5177C68.7902 61.226 68.8524 62.6592 68.8524 64C68.8524 64.8284 68.1808 65.5 67.3524 65.5C66.524 65.5 65.8524 64.8284 65.8524 64C65.8524 62.773 65.7943 61.6492 65.4256 60.3191C65.0544 58.98 64.3467 57.358 62.962 55.2034C61.6657 53.1863 60.4409 52.3794 59.5395 52.0067C59.0731 51.8138 58.6454 51.7172 58.2517 51.6499C58.1167 51.6268 58.0157 51.6116 57.9083 51.5955C57.8324 51.5841 57.7533 51.5722 57.6568 51.5567C57.4859 51.5292 57.2433 51.4879 57.0068 51.4128C56.9958 51.4105 56.9629 51.4035 56.899 51.3923C56.7875 51.3728 56.6423 51.3503 56.4474 51.3202L56.436 51.3184L56.4359 51.3184C56.0578 51.2601 55.5484 51.1815 54.9642 51.0693C53.7884 50.8437 52.2666 50.4746 50.7532 49.8198C49.2432 49.1665 47.6719 48.1988 46.4719 46.7374C45.6293 45.7112 44.9989 44.4759 44.6886 43.0108Z" fill="url(#paint4_linear_1_717)"/>
<path d="M36.8746 22H28.9996C26.7905 22 24.9996 23.7909 24.9996 26V32C24.9996 34.2091 26.7905 36 28.9996 36H33.9108C35.6714 36 37.1844 34.826 37.9547 33.2428C38.5621 31.9944 39.3049 30.9091 39.9996 30.9091C40.6944 30.9091 41.4372 31.9944 42.0446 33.2428C42.8149 34.826 44.3279 36 46.0885 36H50.9996C53.2088 36 54.9996 34.2091 54.9996 32V26C54.9996 23.7909 53.2088 22 50.9996 22H36.8746Z" fill="url(#paint5_linear_1_717)"/>
<defs>
<linearGradient id="paint0_linear_1_717" x1="40.6242" y1="10.2884" x2="40.6242" y2="70.3544" gradientUnits="userSpaceOnUse">
<stop stop-color="#00B9FF"/>
<stop offset="1" stop-color="#0068B5"/>
</linearGradient>
<linearGradient id="paint1_linear_1_717" x1="62.2596" y1="23.6733" x2="62.2596" y2="54.3312" gradientUnits="userSpaceOnUse">
<stop stop-color="#00B9FF"/>
<stop offset="1" stop-color="#0068B5"/>
</linearGradient>
<linearGradient id="paint2_linear_1_717" x1="18.7393" y1="23.6733" x2="18.7393" y2="54.3312" gradientUnits="userSpaceOnUse">
<stop stop-color="#00B9FF"/>
<stop offset="1" stop-color="#0068B5"/>
</linearGradient>
<linearGradient id="paint3_linear_1_717" x1="40.6242" y1="10.2884" x2="40.6242" y2="70.3544" gradientUnits="userSpaceOnUse">
<stop stop-color="#00B9FF"/>
<stop offset="1" stop-color="#0068B5"/>
</linearGradient>
<linearGradient id="paint4_linear_1_717" x1="40.1168" y1="6.57878" x2="40.1168" y2="80.8682" gradientUnits="userSpaceOnUse">
<stop stop-color="#00B9FF"/>
<stop offset="1" stop-color="#0068B5"/>
</linearGradient>
<linearGradient id="paint5_linear_1_717" x1="24.9996" y1="29.98" x2="55.0073" y2="29.5906" gradientUnits="userSpaceOnUse">
<stop stop-color="#FF6753"/>
<stop offset="1" stop-color="#FF8F50"/>
</linearGradient>
</defs>
</svg>
