<svg width="80" height="80" viewBox="0 0 80 80" fill="none" xmlns="http://www.w3.org/2000/svg">
<path d="M64.4996 30H15.4996C13.5666 30 11.9996 28.433 11.9996 26.5V19.5C11.9996 17.567 13.5666 16 15.4996 16H64.4996C66.4326 16 67.9996 17.567 67.9996 19.5V26.5C67.9996 28.433 66.4326 30 64.4996 30ZM59.2496 20.375C57.7999 20.375 56.6246 21.5502 56.6246 23C56.6246 24.4498 57.7999 25.625 59.2496 25.625C60.6994 25.625 61.8746 24.4498 61.8746 23C61.8746 21.5502 60.6994 20.375 59.2496 20.375ZM52.2496 20.375C50.7999 20.375 49.6246 21.5502 49.6246 23C49.6246 24.4498 50.7999 25.625 52.2496 25.625C53.6994 25.625 54.8746 24.4498 54.8746 23C54.8746 21.5502 53.6994 20.375 52.2496 20.375ZM64.4996 47.5H15.4996C13.5666 47.5 11.9996 45.933 11.9996 44V37C11.9996 35.067 13.5666 33.5 15.4996 33.5H64.4996C66.4326 33.5 67.9996 35.067 67.9996 37V44C67.9996 45.933 66.4326 47.5 64.4996 47.5ZM59.2496 37.875C57.7999 37.875 56.6246 39.0502 56.6246 40.5C56.6246 41.9498 57.7999 43.125 59.2496 43.125C60.6994 43.125 61.8746 41.9498 61.8746 40.5C61.8746 39.0502 60.6994 37.875 59.2496 37.875ZM52.2496 37.875C50.7999 37.875 49.6246 39.0502 49.6246 40.5C49.6246 41.9498 50.7999 43.125 52.2496 43.125C53.6994 43.125 54.8746 41.9498 54.8746 40.5C54.8746 39.0502 53.6994 37.875 52.2496 37.875ZM64.4996 65H15.4996C13.5666 65 11.9996 63.433 11.9996 61.5V54.5C11.9996 52.567 13.5666 51 15.4996 51H64.4996C66.4326 51 67.9996 52.567 67.9996 54.5V61.5C67.9996 63.433 66.4326 65 64.4996 65ZM59.2496 55.375C57.7999 55.375 56.6246 56.5502 56.6246 58C56.6246 59.4498 57.7999 60.625 59.2496 60.625C60.6994 60.625 61.8746 59.4498 61.8746 58C61.8746 56.5502 60.6994 55.375 59.2496 55.375ZM52.2496 55.375C50.7999 55.375 49.6246 56.5502 49.6246 58C49.6246 59.4498 50.7999 60.625 52.2496 60.625C53.6994 60.625 54.8746 59.4498 54.8746 58C54.8746 56.5502 53.6994 55.375 52.2496 55.375Z" fill="url(#paint0_linear_1_727)"/>
<path d="M54.9277 71.9871C54.269 71.9833 53.6294 71.7654 53.1054 71.3664L50.3112 69.2884C49.6664 68.7859 49.2386 68.0556 49.1156 67.2475C48.9926 66.4395 49.1838 65.615 49.6498 64.9435C49.8964 64.5795 50.0531 64.1622 50.1071 63.7259C50.1611 63.2896 50.1108 62.8468 49.9603 62.4337L49.8793 62.2178C49.7745 61.8439 49.583 61.5 49.3203 61.2139C49.0577 60.9279 48.7312 60.7078 48.3675 60.5716H48.1515C47.363 60.3065 46.711 59.7413 46.3369 58.9985C45.9629 58.2557 45.8971 57.3955 46.1538 56.6045L47.2606 53.0961C47.3625 52.6897 47.5501 52.3096 47.8108 51.9815C48.0716 51.6534 48.3994 51.3847 48.7724 51.1935C49.1198 51.0146 49.4999 50.908 49.8897 50.8802C50.2795 50.8524 50.6709 50.9039 51.0402 51.0316C51.4422 51.1669 51.8713 51.202 52.29 51.1338C52.7088 51.0656 53.1045 50.8962 53.4429 50.6403L53.6183 50.5054C53.9246 50.2611 54.1721 49.9512 54.3427 49.5986C54.5132 49.2459 54.6024 48.8595 54.6037 48.4678V48.144C54.6001 47.3184 54.9229 46.5247 55.5018 45.9359C56.0808 45.347 56.869 45.0107 57.6948 45H61.1369C61.5387 45.0011 61.9363 45.0815 62.307 45.2367C62.6776 45.3918 63.0139 45.6186 63.2966 45.9041C63.8909 46.5083 64.2211 47.3236 64.2145 48.171V48.5488C64.2077 48.9209 64.2884 49.2894 64.4502 49.6246C64.6119 49.9597 64.8503 50.2522 65.1459 50.4784L65.2944 50.5863C65.5973 50.8134 65.9507 50.9639 66.3244 51.025C66.6981 51.0861 67.0811 51.056 67.4406 50.9372L67.8995 50.7887C68.2884 50.6599 68.6992 50.6107 69.1075 50.644C69.5158 50.6773 69.9132 50.7924 70.276 50.9826C70.6388 51.1727 70.9596 51.434 71.2192 51.7507C71.4788 52.0675 71.6719 52.4333 71.7871 52.8263L72.8534 56.2267C73.1002 57.0125 73.0327 57.8634 72.6653 58.6006C72.2978 59.3378 71.6589 59.904 70.8827 60.1803L70.6127 60.2747C70.2156 60.4047 69.8566 60.6302 69.5671 60.9313C69.2776 61.2325 69.0665 61.6001 68.9524 62.0019C68.845 62.3754 68.8195 62.7677 68.8777 63.152C68.936 63.5362 69.0766 63.9034 69.2899 64.2283L69.6408 64.7411C70.1062 65.4164 70.2956 66.244 70.1701 67.0544C70.0446 67.8648 69.6138 68.5965 68.9659 69.0995L66.2528 71.191C65.925 71.4416 65.5493 71.6225 65.149 71.7225C64.7487 71.8225 64.3321 71.8395 63.9249 71.7725C63.5177 71.7055 63.1286 71.5559 62.7814 71.3329C62.4343 71.1099 62.1364 70.8183 61.9063 70.4759L61.7443 70.2465C61.5232 69.9143 61.2216 69.6436 60.8675 69.4596C60.5135 69.2755 60.1185 69.1842 59.7196 69.194C59.3389 69.2038 58.9658 69.303 58.6306 69.4835C58.2953 69.664 58.0071 69.9207 57.7893 70.233L57.4789 70.6783C57.2486 71.0231 56.9502 71.3171 56.602 71.5422C56.2538 71.7673 55.8631 71.9187 55.4541 71.9871C55.279 72.0043 55.1027 72.0043 54.9277 71.9871Z" fill="url(#paint1_linear_1_727)"/>
<path d="M59.4996 63C58.6096 63 57.7396 62.7361 56.9996 62.2416C56.2595 61.7471 55.6828 61.0443 55.3422 60.2221C55.0016 59.3998 54.9125 58.495 55.0861 57.6221C55.2597 56.7492 55.6883 55.9474 56.3177 55.318C56.947 54.6887 57.7488 54.2601 58.6217 54.0865C59.4946 53.9128 60.3994 54.0019 61.2217 54.3425C62.044 54.6831 62.7468 55.2599 63.2412 55.9999C63.7357 56.74 63.9996 57.61 63.9996 58.5C63.9996 59.6935 63.5255 60.8381 62.6816 61.682C61.8377 62.5259 60.6931 63 59.4996 63Z" fill="white"/>
<defs>
<linearGradient id="paint0_linear_1_727" x1="39.8805" y1="6.6237" x2="39.8805" y2="80.2261" gradientUnits="userSpaceOnUse">
<stop stop-color="#00B9FF"/>
<stop offset="1" stop-color="#0068B5"/>
</linearGradient>
<linearGradient id="paint1_linear_1_727" x1="45.9996" y1="60.39" x2="73.0101" y2="60.2264" gradientUnits="userSpaceOnUse">
<stop stop-color="#FF6753"/>
<stop offset="1" stop-color="#FF8F50"/>
</linearGradient>
</defs>
</svg>
