<svg width="212" height="69" viewBox="0 0 212 69" fill="none" xmlns="http://www.w3.org/2000/svg">
<g clip-path="url(#clip0_1_853)">
<path d="M28.3002 68.4698L23.59 68.4464L20.0497 63.985H10.0752L12.2918 61.2287H17.8639L14.2005 56.627L4.71854 68.4464H0.00836182L11.4298 54.0343C11.7171 53.6605 12.1173 53.3179 12.6304 53.0065C13.2461 52.6483 13.8003 52.4692 14.2928 52.4692C14.8265 52.4692 15.3806 52.6405 15.9552 52.9831C16.4478 53.279 16.848 53.6294 17.1559 54.0343L28.3002 68.4698ZM61.0442 52.516L49.0379 67.1617C48.1964 68.205 47.437 68.7267 46.7597 68.7267C46.103 68.7267 45.3538 68.205 44.5124 67.1617L32.7524 52.516H37.4625L46.8521 64.3587L56.334 52.516H61.0442ZM92.1955 61.7659H80.1891V58.9863H92.1955V61.7659ZM93.1498 68.4698H74.9864V52.516H93.1498V55.2956H78.6499V65.6901H93.1498V68.4698ZM131.868 63.5412C131.868 65.0517 131.16 66.2663 129.744 67.1851C128.389 68.0415 126.696 68.4698 124.664 68.4698H108.625V65.6901H124.664C125.67 65.6901 126.542 65.5188 127.281 65.1762C128.122 64.7558 128.543 64.1874 128.543 63.4711C128.543 62.7548 128.112 62.2019 127.25 61.8126C126.532 61.4856 125.67 61.3221 124.664 61.3221H114.751C112.925 61.3221 111.396 60.9406 110.164 60.1775C108.85 59.3522 108.194 58.2621 108.194 56.9073C108.194 55.5681 108.85 54.4859 110.164 53.6605C111.396 52.8975 112.925 52.516 114.751 52.516H130.606V55.2956H114.751C114.053 55.2956 113.458 55.4436 112.966 55.7394C112.473 56.0353 112.227 56.4324 112.227 56.9307C112.227 57.4446 112.473 57.8417 112.966 58.122C113.458 58.4023 114.053 58.5424 114.751 58.5424H124.664C126.696 58.5424 128.389 58.9863 129.744 59.8739C131.16 60.8082 131.868 62.0307 131.868 63.5412ZM168.625 68.4698H164.962V61.836H152.617V59.0563H164.962V52.516H168.625V68.4698ZM150.954 68.4698H147.291V52.516H150.954V68.4698ZM211.492 68.4698L206.782 68.4464L203.242 63.985H193.267L195.484 61.2287H201.056L197.392 56.627L187.91 68.4464H183.2L194.622 54.0343C194.908 53.6605 195.309 53.3179 195.822 53.0065C196.438 52.6483 196.992 52.4692 197.485 52.4692C198.018 52.4692 198.572 52.6405 199.147 52.9831C199.64 53.279 200.04 53.6294 200.348 54.0343L211.492 68.4698Z" fill="url(#paint0_linear_1_853)"/>
</g>
<path fill-rule="evenodd" clip-rule="evenodd" d="M107.024 0.29292C106.935 0.203206 106.83 0.132544 106.716 0.0831184C106.586 0.0267177 106.451 -0.000104035 106.317 3.03215e-07C106.183 -0.000104035 106.048 0.0267191 105.918 0.0831198C105.805 0.132546 105.7 0.203206 105.61 0.29292C105.531 0.372095 105.466 0.463235 105.418 0.561836L98.8751 13.6389L79.5588 0.625825C79.1948 0.380565 78.7133 0.401403 78.3718 0.677201C78.0303 0.952999 77.9086 1.41927 78.0717 1.8268L89.9091 31.3993C90.061 31.7789 90.4287 32.0277 90.8375 32.0277H106.317H121.797C122.206 32.0277 122.573 31.7789 122.725 31.3993L134.563 1.8268C134.726 1.41927 134.604 0.952999 134.262 0.677201C133.921 0.401403 133.439 0.380565 133.075 0.625825L113.759 13.6389L107.216 0.561836C107.168 0.463235 107.104 0.372095 107.024 0.29292ZM106.317 3.23502L100.547 14.7674L106.317 18.6736L112.087 14.7674L106.317 3.23502ZM106.317 21.1134L93.9375 30.0277H106.317H118.697L106.317 21.1134ZM104.571 19.9065L99.6229 16.5571L93.7175 27.7216L104.571 19.9065ZM81.1358 4.09972L90.9633 28.6511L97.9559 15.4311L81.1358 4.09972ZM108.064 19.9065L113.011 16.5571L118.917 27.7216L108.064 19.9065ZM131.498 4.09972L121.671 28.6511L114.678 15.4311L131.498 4.09972Z" fill="#5B9BD5"/>
<defs>
<linearGradient id="paint0_linear_1_853" x1="105.3" y1="49.3583" x2="105.3" y2="73.7785" gradientUnits="userSpaceOnUse">
<stop stop-color="#00B9FF"/>
<stop offset="1" stop-color="#0068B5"/>
</linearGradient>
<clipPath id="clip0_1_853">
<rect width="212" height="16.988" fill="white" transform="translate(0 52.0122)"/>
</clipPath>
</defs>
</svg>
