<svg width="15" height="24" viewBox="0 0 15 24" fill="none" xmlns="http://www.w3.org/2000/svg">
<path fill-rule="evenodd" clip-rule="evenodd" d="M8 5C8.19891 5 7.85935 4.85935 8 5C8.14065 5.14065 8 4.80109 8 5V8C8 8.19891 8.14065 8.85935 8 9C7.85935 9.14065 8.19891 9 8 9C7.80109 9 7.14065 9.14065 7 9C6.85935 8.85935 7 8.19891 7 8V5C7 4.80109 6.85935 5.14065 7 5C7.14065 4.85935 7.80109 5 8 5ZM14 17V8C14 6.4087 13.1252 4.12522 12 3C10.8748 1.87478 9.5913 2 8 2C6.4087 2 4.12522 1.87478 3 3C1.87478 4.12522 2 6.4087 2 8V17C2 18.5913 1.87478 19.8748 3 21C4.12522 22.1252 6.4087 23 8 23C9.5913 23 10.8748 22.1252 12 21C13.1252 19.8748 14 18.5913 14 17ZM8 0C6.01088 0 3.40652 0.593477 2 2C0.593477 3.40652 0 6.01088 0 8V17C0 18.9891 0.593477 20.5935 2 22C3.40652 23.4065 6.01088 24 8 24C9.98912 24 11.5935 23.4065 13 22C14.4065 20.5935 15 18.9891 15 17V8C15 6.01088 14.4065 3.40652 13 2C11.5935 0.593477 9.98912 0 8 0Z" fill="white"/>
</svg>
