<svg width="207" height="27" viewBox="0 0 207 27" fill="none" xmlns="http://www.w3.org/2000/svg">
<g clip-path="url(#clip0_1_896)">
<path d="M77.0238 19.6248L73.6911 19.6083L71.1862 16.4568H64.1288L65.6971 14.5098H69.6396L67.0476 11.2593L60.3387 19.6083H57.006L65.0872 9.42777C65.2905 9.16377 65.5737 8.92177 65.9367 8.70177C66.3723 8.44877 66.7644 8.32227 67.1129 8.32227C67.4905 8.32227 67.8826 8.44326 68.2891 8.68527C68.6377 8.89427 68.9208 9.14177 69.1387 9.42777L77.0238 19.6248ZM100.192 8.35527L91.6967 18.7008C91.1013 19.4378 90.564 19.8063 90.0848 19.8063C89.6201 19.8063 89.09 19.4378 88.4947 18.7008L80.1739 8.35527H83.5066L90.1501 16.7208L96.859 8.35527H100.192ZM122.233 14.8893H113.738V12.9258H122.233V14.8893ZM122.908 19.6248H110.056V8.35527H122.908V10.3188H112.649V17.6613H122.908V19.6248ZM150.303 16.1433C150.303 17.2103 149.802 18.0683 148.8 18.7173C147.842 19.3223 146.644 19.6248 145.206 19.6248H133.857V17.6613H145.206C145.917 17.6613 146.535 17.5403 147.057 17.2983C147.653 17.0013 147.951 16.5998 147.951 16.0938C147.951 15.5878 147.646 15.1973 147.036 14.9223C146.527 14.6913 145.917 14.5758 145.206 14.5758H138.192C136.9 14.5758 135.818 14.3063 134.947 13.7673C134.017 13.1843 133.553 12.4143 133.553 11.4573C133.553 10.5113 134.017 9.74677 134.947 9.16377C135.818 8.62477 136.9 8.35527 138.192 8.35527H149.41V10.3188H138.192C137.698 10.3188 137.277 10.4233 136.929 10.6323C136.58 10.8413 136.406 11.1218 136.406 11.4738C136.406 11.8368 136.58 12.1173 136.929 12.3153C137.277 12.5133 137.698 12.6123 138.192 12.6123H145.206C146.644 12.6123 147.842 12.9258 148.8 13.5528C149.802 14.2128 150.303 15.0763 150.303 16.1433ZM176.31 19.6248H173.718V14.9388H164.984V12.9753H173.718V8.35527H176.31V19.6248ZM163.807 19.6248H161.215V8.35527H163.807V19.6248ZM206.641 19.6248L203.308 19.6083L200.803 16.4568H193.746L195.314 14.5098H199.256L196.664 11.2593L189.955 19.6083H186.623L194.704 9.42777C194.907 9.16377 195.19 8.92177 195.553 8.70177C195.989 8.44877 196.381 8.32227 196.73 8.32227C197.107 8.32227 197.499 8.44326 197.906 8.68527C198.254 8.89427 198.538 9.14177 198.755 9.42777L206.641 19.6248Z" fill="url(#paint0_linear_1_896)"/>
</g>
<path fill-rule="evenodd" clip-rule="evenodd" d="M24.2052 0.595443C24.116 0.506792 24.0118 0.436888 23.8989 0.387862C23.7695 0.331423 23.6339 0.304583 23.5001 0.304688C23.3663 0.304583 23.2307 0.331424 23.1012 0.387864C22.9883 0.43689 22.8841 0.506792 22.7949 0.595443C22.7147 0.675195 22.6495 0.767199 22.6011 0.86681L17.4442 11.1807L2.10788 0.841587C1.74389 0.596199 1.26242 0.61689 0.920821 0.8926C0.579222 1.16831 0.457377 1.63457 0.620412 2.04215L10.1326 25.8226C10.2845 26.2023 10.6522 26.4512 11.0611 26.4512H23.5001H35.9391C36.348 26.4512 36.7157 26.2023 36.8676 25.8226L46.3797 2.04215C46.5428 1.63457 46.4209 1.16831 46.0793 0.8926C45.7377 0.61689 45.2563 0.596199 44.8923 0.841587L29.556 11.1807L24.3991 0.86681C24.3506 0.767199 24.2855 0.675195 24.2052 0.595443ZM23.5001 3.54097L19.1156 12.3099L23.5001 15.28L27.8845 12.3099L23.5001 3.54097ZM23.5001 17.7204L14.1593 24.4512H23.5001H32.8408L23.5001 17.7204ZM21.7544 16.5131L18.1921 14.0999L13.9403 22.1439L21.7544 16.5131ZM3.68412 4.31627L11.1869 23.0732L16.5254 12.9733L3.68412 4.31627ZM25.2457 16.5131L28.808 14.0999L33.0598 22.1439L25.2457 16.5131ZM43.316 4.31627L35.8132 23.0732L30.4747 12.9733L43.316 4.31627Z" fill="url(#paint1_linear_1_896)"/>
<defs>
<linearGradient id="paint0_linear_1_896" x1="131.505" y1="6.12477" x2="131.505" y2="23.3748" gradientUnits="userSpaceOnUse">
<stop stop-color="#00B9FF"/>
<stop offset="1" stop-color="#0068B5"/>
</linearGradient>
<linearGradient id="paint1_linear_1_896" x1="23.4024" y1="-4.69853" x2="23.4024" y2="34.5759" gradientUnits="userSpaceOnUse">
<stop stop-color="#00B9FF"/>
<stop offset="1" stop-color="#0068B5"/>
</linearGradient>
<clipPath id="clip0_1_896">
<rect width="150" height="12" fill="white" transform="translate(57 8)"/>
</clipPath>
</defs>
</svg>
