<svg width="47" height="27" viewBox="0 0 47 27" fill="none" xmlns="http://www.w3.org/2000/svg">
<path fill-rule="evenodd" clip-rule="evenodd" d="M24.2052 0.595443C24.116 0.506792 24.0118 0.436888 23.8989 0.387862C23.7695 0.331423 23.6339 0.304583 23.5001 0.304688C23.3663 0.304583 23.2307 0.331424 23.1012 0.387864C22.9883 0.43689 22.8841 0.506792 22.7949 0.595443C22.7147 0.675195 22.6495 0.767199 22.6011 0.86681L17.4442 11.1807L2.10788 0.841587C1.74389 0.596199 1.26242 0.61689 0.920821 0.8926C0.579222 1.16831 0.457377 1.63457 0.620412 2.04215L10.1326 25.8226C10.2845 26.2023 10.6522 26.4512 11.0611 26.4512H23.5001H35.9391C36.348 26.4512 36.7157 26.2023 36.8676 25.8226L46.3797 2.04215C46.5428 1.63457 46.4209 1.16831 46.0793 0.8926C45.7377 0.61689 45.2563 0.596199 44.8923 0.841587L29.556 11.1807L24.3991 0.86681C24.3506 0.767199 24.2855 0.675195 24.2052 0.595443ZM23.5001 3.54097L19.1156 12.3099L23.5001 15.28L27.8845 12.3099L23.5001 3.54097ZM23.5001 17.7204L14.1593 24.4512H23.5001H32.8408L23.5001 17.7204ZM21.7544 16.5131L18.1921 14.0999L13.9403 22.1439L21.7544 16.5131ZM3.68412 4.31627L11.1869 23.0732L16.5254 12.9733L3.68412 4.31627ZM25.2457 16.5131L28.808 14.0999L33.0598 22.1439L25.2457 16.5131ZM43.316 4.31627L35.8132 23.0732L30.4747 12.9733L43.316 4.31627Z" fill="white"/>
</svg>
