<svg width="24" height="24" viewBox="0 0 24 24" fill="none" xmlns="http://www.w3.org/2000/svg">
<path d="M11.9997 0.750003C5.78967 0.750003 0.749668 5.79 0.749668 12C0.749668 18.21 5.78967 23.25 11.9997 23.25C18.2097 23.25 23.2497 18.21 23.2497 12C23.2497 5.79 18.2097 0.750003 11.9997 0.750003ZM8.95092 16.8263L5.29694 13.125C5.19279 13.0208 5.11017 12.8972 5.0538 12.7611C4.99743 12.625 4.96842 12.4792 4.96842 12.3319C4.96842 12.1846 4.99743 12.0387 5.0538 11.9026C5.11017 11.7666 5.19279 11.6429 5.29694 11.5388C5.4011 11.4346 5.52474 11.352 5.66083 11.2956C5.79691 11.2392 5.94277 11.2102 6.09007 11.2102C6.23736 11.2102 6.38322 11.2392 6.5193 11.2956C6.65539 11.352 6.77904 11.4346 6.88319 11.5388L9.74967 14.4413L15.9911 8.37515C16.2014 8.1648 16.4867 8.04663 16.7842 8.04663C17.0817 8.04663 17.367 8.1648 17.5773 8.37515C17.7877 8.5855 17.9058 8.8708 17.9058 9.16827C17.9058 9.46575 17.7877 9.75105 17.5773 9.9614L10.5372 16.8263C10.4331 16.9305 10.3095 17.0133 10.1734 17.0697C10.0373 17.1262 9.89138 17.1553 9.74404 17.1553C9.5967 17.1553 9.45081 17.1262 9.31472 17.0697C9.17862 17.0133 9.055 16.9305 8.95092 16.8263Z" fill="#26CC80"/>
</svg>
